<svg xmlns="http://www.w3.org/2000/svg" xmlns:xlink="http://www.w3.org/1999/xlink" version="1.1" id="Layer_3" x="0px" y="0px" width="100px" height="61.512px" viewBox="0 0 100 61.512" enable-background="new 0 0 100 61.512" xml:space="preserve"><path fill="#FFFFFF" d="M99.965 21.308l-0.043-0.493c-0.018-0.164-0.043-0.322-0.066-0.482l-0.033-0.24l-0.044-0.236 c-0.03-0.154-0.062-0.314-0.095-0.468c-0.073-0.304-0.143-0.614-0.232-0.906l-0.064-0.223l-0.033-0.108 c0.02 0.055-0.063-0.201-0.065-0.205l-0.126-0.351l-0.033-0.09l-0.057-0.138l-0.116-0.276l-0.12-0.272 c-0.021-0.046-0.041-0.09-0.061-0.125l-0.057-0.113l-0.236-0.446c-0.082-0.147-0.168-0.284-0.252-0.425l-0.129-0.209 c-0.043-0.069-0.09-0.135-0.135-0.2l-0.275-0.396c-0.094-0.128-0.191-0.249-0.289-0.373c-0.096-0.12-0.191-0.249-0.293-0.361 c-0.801-0.941-1.675-1.73-2.581-2.42c-1.813-1.373-3.743-2.351-5.682-3.11c-1.94-0.751-3.897-1.276-5.837-1.634 C81.07 6.7 79.2 6.4 77.3 6.373c-1.886-0.073-3.732-0.033-5.533 0.107c-3.604 0.274-7.019 0.923-10.211 1.8 c-3.196 0.847-6.174 1.901-8.932 3.045c-0.343 0.147-0.684 0.292-1.022 0.438c-0.168 0.074-0.338 0.143-0.504 0.2 c-0.168 0.074-0.334 0.149-0.498 0.226c-0.333 0.149-0.661 0.298-0.985 0.446c-0.322 0.154-0.643 0.309-0.96 0.5 c-1.271 0.608-2.484 1.24-3.648 1.869c-0.073 0.038-0.146 0.078-0.218 0.117c-0.072 0.039-0.144 0.08-0.215 0.1 c-0.143 0.08-0.286 0.161-0.427 0.239c-0.284 0.16-0.564 0.317-0.843 0.474c-0.14 0.077-0.276 0.158-0.413 0.2 c-0.137 0.043-0.272 0.161-0.408 0.24c-0.271 0.16-0.539 0.316-0.804 0.475c-0.133 0.078-0.265 0.157-0.394 0.2 c-0.13 0.08-0.26 0.161-0.389 0.239c-0.257 0.158-0.513 0.315-0.765 0.473c-0.253 0.153-0.5 0.315-0.744 0.5 c-0.245 0.159-0.486 0.315-0.726 0.47c-0.481 0.306-0.942 0.621-1.395 0.926c-0.226 0.153-0.45 0.305-0.671 0.5 c-0.222 0.148-0.435 0.304-0.649 0.454c-0.426 0.301-0.844 0.593-1.248 0.882c-0.4 0.294-0.791 0.582-1.171 0.9 c-0.189 0.142-0.378 0.275-0.561 0.415c-0.183 0.142-0.361 0.278-0.539 0.414c-0.354 0.273-0.697 0.535-1.03 0.8 c-0.657 0.524-1.271 1.015-1.84 1.472c-0.562 0.47-1.082 0.903-1.558 1.297c-0.471 0.403-0.894 0.776-1.274 1.1 c-0.19 0.166-0.369 0.318-0.537 0.466c-0.167 0.146-0.319 0.289-0.462 0.417c-0.285 0.258-0.524 0.474-0.717 0.6 c-0.384 0.351-0.583 0.531-0.583 0.531s0.221-0.151 0.65-0.446c0.213-0.147 0.479-0.33 0.794-0.547 c0.157-0.107 0.327-0.227 0.51-0.352c0.184-0.124 0.38-0.256 0.588-0.397c0.417-0.277 0.879-0.593 1.395-0.932 c0.517-0.336 1.08-0.702 1.689-1.098c0.614-0.386 1.273-0.801 1.978-1.245c0.355-0.215 0.721-0.438 1.098-0.667 c0.188-0.112 0.38-0.23 0.574-0.348c0.193-0.118 0.393-0.23 0.594-0.351c0.402-0.235 0.814-0.479 1.237-0.724 c0.426-0.241 0.864-0.487 1.311-0.74c0.225-0.125 0.448-0.256 0.68-0.38c0.231-0.125 0.464-0.251 0.701-0.378 c0.473-0.254 0.952-0.521 1.45-0.775c0.248-0.129 0.499-0.259 0.752-0.39c0.253-0.132 0.508-0.265 0.77-0.392 c0.26-0.129 0.522-0.259 0.787-0.391c0.133-0.066 0.266-0.134 0.399-0.198c0.133-0.067 0.268-0.133 0.405-0.197 c0.544-0.256 1.096-0.522 1.662-0.78c0.284-0.128 0.569-0.259 0.858-0.389c0.144-0.063 0.289-0.131 0.434-0.194 c0.072-0.034 0.145-0.066 0.218-0.101c0.073-0.03 0.147-0.063 0.221-0.095c1.18-0.508 2.399-1.021 3.67-1.507 c0.317-0.121 0.637-0.243 0.959-0.364c0.324-0.117 0.648-0.234 0.979-0.354c0.164-0.06 0.329-0.119 0.494-0.179 c0.165-0.062 0.333-0.113 0.5-0.171c0.334-0.112 0.671-0.228 1.01-0.34c2.718-0.887 5.61-1.679 8.659-2.268 c3.046-0.584 6.249-0.98 9.542-1.036c1.646-0.025 3.3 0 5 0.184c1.673 0.2 3.4 0.4 5 0.8 c1.651 0.4 3.3 0.9 4.8 1.613c0.771 0.3 1.5 0.7 2.2 1.147c0.712 0.4 1.4 0.9 2 1.4 c0.61 0.5 1.2 1 1.6 1.625c0.061 0.1 0.1 0.1 0.2 0.201c0.051 0.1 0.1 0.1 0.2 0.215l0.138 0.2 c0.021 0 0 0.1 0.1 0.107l0.059 0.105c0.039 0.1 0.1 0.1 0.1 0.202c0.031 0.1 0.1 0.1 0.1 0.202l0.024 0.1 c0.011 0 0 0 0 0.042c0.008 0 0 0 0 0.066c0.011 0 0 0 0 0.102l0.018 0.032l0.027 0.1l0.107 0.3 c-0.011-0.033-0.027-0.078-0.006-0.009l0.018 0.068l0.033 0.1c0.053 0.2 0.1 0.4 0.1 0.542c0.017 0.1 0 0.2 0 0.3 l0.021 0.134l0.012 0.101c0.008 0.1 0 0.2 0 0.26l0.039 0.254c0.004 0 0 0.1 0 0.126v0.125v0.124 c0 0.042-0.031 0.082-0.033 0.102c-0.006 0.08-0.02 0.163-0.027 0.242c-0.012 0.08-0.023 0.16-0.033 0.2 c-0.046 0.316-0.119 0.621-0.215 0.908c-0.104 0.301-0.23 0.599-0.387 0.896c-0.043 0.074-0.084 0.147-0.125 0.2 c-0.041 0.073-0.092 0.146-0.137 0.202c-0.021 0.038-0.045 0.074-0.067 0.11l-0.077 0.108l-0.076 0.1 c-0.023 0.036-0.049 0.072-0.079 0.108l-0.167 0.202c-0.025 0.038-0.058 0.072-0.088 0.108l-0.091 0.1 c-0.115 0.146-0.256 0.284-0.381 0.431l-0.209 0.211l-0.104 0.104l-0.111 0.102l-0.221 0.208l-0.234 0.2 c-0.623 0.546-1.336 1.063-2.094 1.553s-1.564 0.95-2.405 1.411c-1.682 0.875-3.484 1.657-5.344 2.4 c-0.93 0.36-1.877 0.702-2.831 1.036c-0.479 0.167-0.961 0.329-1.442 0.504c-0.484 0.158-0.97 0.32-1.457 0.5 c-3.906 1.243-7.938 2.34-12.014 3.377c-2.038 0.519-4.091 1.019-6.149 1.512c-1.031 0.242-2.063 0.482-3.095 0.7 c-1.032 0.235-2.067 0.475-3.104 0.713c-4.138 0.939-8.279 1.84-12.404 2.62c-1.802 0.356-3.6 0.7-5.394 1 c-1.879-3.994-5.918-6.764-10.587-6.764c-5.385 0-9.931 3.683-11.294 8.681l-0.085-0.012l-0.167-0.019l-0.164-0.022l-0.329-0.043 l-0.321-0.05c-0.216-0.032-0.42-0.076-0.629-0.113L9.37 45.925c-0.05-0.012-0.102-0.021-0.15-0.033l-0.015 0.002l-0.146-0.036 c-0.049-0.013-0.098-0.023-0.143-0.04l-0.279-0.08c-0.177-0.061-0.359-0.114-0.521-0.182c-0.332-0.127-0.63-0.267-0.877-0.411 c-0.246-0.146-0.438-0.296-0.582-0.438c-0.036-0.035-0.064-0.071-0.1-0.105c-0.029-0.033-0.054-0.068-0.085-0.104 c-0.023-0.036-0.046-0.07-0.073-0.104c-0.009-0.02-0.019-0.036-0.029-0.056L6.354 44.54c-0.004-0.007-0.015 0.164-0.014 0.2 c0 0 0 0-0.003 0H6.333c-0.003 0-0.001-0.171-0.016-0.214l-0.063-0.315l-0.032-0.135c-0.001-0.005-0.003-0.03-0.004-0.034 c-0.014-0.046-0.029-0.103-0.039-0.148l-0.025-0.105l-0.021-0.131c-0.056-0.274-0.084-0.575-0.084-0.899 c0-0.319 0.026-0.664 0.082-1.021c0.057-0.356 0.14-0.727 0.247-1.102c0.212-0.75 0.519-1.52 0.885-2.285 c0.183-0.383 0.38-0.763 0.59-1.142c0.211-0.377 0.434-0.751 0.666-1.123c0.233-0.371 0.478-0.738 0.728-1.105 c0.252-0.363 0.512-0.724 0.778-1.079c0.533-0.713 1.09-1.41 1.67-2.09c1.159-1.362 2.393-2.654 3.661-3.888 c1.27-1.234 2.58-2.407 3.904-3.528c1.327-1.119 2.674-2.182 4.023-3.199c2.703-2.031 5.429-3.86 8.109-5.521 c5.368-3.318 10.56-5.953 15.271-8.053c4.712-2.103 8.948-3.674 12.479-4.852c3.529-1.177 6.355-1.97 8.29-2.489 c0.484-0.128 0.914-0.24 1.281-0.337c0.37-0.094 0.682-0.176 0.934-0.238c0.504-0.097 0.752-0.198 0.752-0.198 s-0.267 0.027-0.781 0.101c-0.514 0.062-1.28 0.147-2.273 0.285c-1.99 0.271-4.905 0.729-8.581 1.5 c-3.674 0.81-8.105 1.975-13.083 3.73c-4.976 1.723-10.497 4.001-16.271 7.052c-0.722 0.38-1.448 0.774-2.176 1.2 c-0.728 0.435-1.458 0.826-2.192 1.21c-1.468 0.863-2.941 1.786-4.418 2.765c-1.478 0.979-2.955 2.021-4.424 3.1 c-1.471 1.109-2.928 2.29-4.364 3.528c-0.717 0.633-1.43 1.284-2.133 1.961c-0.702 0.677-1.395 1.38-2.076 2.1 c-0.681 0.73-1.348 1.489-1.998 2.319c-0.323 0.397-0.642 0.803-0.955 1.219c-0.312 0.416-0.62 0.842-0.919 1.3 c-0.299 0.438-0.591 0.887-0.874 1.311c-0.282 0.463-0.554 0.941-0.813 1.431c-0.521 0.984-0.988 2.033-1.361 3.1 c-0.186 0.569-0.346 1.166-0.469 1.814c-0.122 0.623-0.205 1.273-0.232 1.952c-0.025 0.7 0 1.4 0.1 2.099l0.046 0.3 c0.018 0.1 0 0.2 0.1 0.304c0.036 0.2 0.1 0.4 0.1 0.538c0.005 0 0.1 0.3 0.1 0.221l0.016 0.032l0.058 0.2 c0.004 0 0 0.1 0.1 0.102l0.069 0.174c0.046 0.1 0.1 0.2 0.1 0.347c0.025 0.1 0 0.1 0.1 0.103l0.071 0.141l0.146 0.3 c0.106 0.2 0.2 0.4 0.3 0.504c0.12 0.2 0.2 0.3 0.4 0.504c0.13 0.2 0.3 0.3 0.4 0.5 c0.547 0.6 1.2 1.1 1.8 1.471c0.609 0.4 1.2 0.7 1.8 0.907c0.305 0.1 0.6 0.2 0.9 0.347l0.448 0.1 c0.075 0 0.1 0 0.2 0.066l0.222 0.063l0.222 0.102c0.074 0 0.1 0 0.2 0.057l0.44 0.101c0.29 0.1 0.6 0.1 0.9 0.2 c0.579 0.1 1.1 0.2 1.7 0.303c0.179 0 0.4 0 0.5 0.061c1.443 4.8 5.9 8.5 11.2 8.468c5.865 0 10.737-4.369 11.582-10.049 c1.905-0.317 3.806-0.66 5.703-1.024c2.112-0.4 4.221-0.827 6.325-1.272c2.104-0.443 4.204-0.906 6.3-1.383l1.568-0.356l1.567-0.364 l1.568-0.369c0.522-0.126 1.045-0.251 1.567-0.376c2.003-0.482 4.001-0.985 5.997-1.503c-0.347 1.197-0.524 2.449-0.524 3.7 c0 3.5 1.4 6.9 3.9 9.374c2.484 2.5 5.8 3.9 9.3 3.931c3.513 0 6.815-1.379 9.302-3.885 c2.482-2.504 3.852-5.835 3.852-9.378c0-3.542-1.368-6.87-3.852-9.376c-0.402-0.405-0.826-0.78-1.27-1.127 c1.357-0.603 2.705-1.257 4.034-1.988c0.979-0.538 1.943-1.123 2.895-1.771c0.946-0.649 1.879-1.36 2.769-2.181l0.333-0.31 l0.325-0.324l0.162-0.163l0.16-0.171l0.314-0.342l0.309-0.358c0.051-0.062 0.104-0.118 0.151-0.182l0.147-0.19l0.146-0.189 c0.049-0.064 0.1-0.126 0.145-0.193l0.283-0.396c0.047-0.065 0.092-0.136 0.137-0.204l0.135-0.207l0.132-0.208 c0.043-0.071 0.084-0.145 0.126-0.215c0.083-0.146 0.168-0.287 0.246-0.437l0.229-0.449c0.293-0.61 0.543-1.251 0.736-1.914 c0.188-0.665 0.316-1.347 0.389-2.029c0.08-0.631 0.066-1.337 0.066-2.014H99.965z M22.793 55.986c-3.595 0-6.52-2.948-6.52-6.572 s2.924-6.573 6.52-6.573c3.595 0 6.5 2.9 6.5 6.573c0.02 3.619-2.89 6.543-6.489 6.572H22.793z M77.601 55.7 c-4.071 0-7.384-3.341-7.384-7.447c0-4.104 3.313-7.445 7.384-7.445S84.987 44.1 85 48.249c0.014 4.119-3.328 7.404-7.403 7.4 H77.601z"/></svg>